<svg id="calendar_1_" data-name="calendar(1)" xmlns="http://www.w3.org/2000/svg" viewBox="0 0 12.825 10.902">
  <g id="Group_33" data-name="Group 33" transform="translate(0)">
    <path id="Path_4" data-name="Path 4" d="M118.669,258.489a.276.276,0,0,0-.3-.247h-1.039a.276.276,0,0,0-.3.247v.863a.276.276,0,0,0,.3.247h1.039a.276.276,0,0,0,.3-.247v-.863Z" transform="translate(-114.036 -252.474)"/>
    <path id="Path_5" data-name="Path 5" d="M215.3,258.489a.276.276,0,0,0-.3-.247h-1.039a.276.276,0,0,0-.3.247v.863a.276.276,0,0,0,.3.247h1.039a.276.276,0,0,0,.3-.247Z" transform="translate(-208.074 -252.474)"/>
    <path id="Path_6" data-name="Path 6" d="M311.932,258.489a.276.276,0,0,0-.3-.247H310.6a.276.276,0,0,0-.3.247v.863a.276.276,0,0,0,.3.247h1.039a.276.276,0,0,0,.3-.247Z" transform="translate(-302.106 -252.474)"/>
    <path id="Path_7" data-name="Path 7" d="M118.669,355.122a.276.276,0,0,0-.3-.247h-1.039a.276.276,0,0,0-.3.247v.863a.276.276,0,0,0,.3.247h1.039a.276.276,0,0,0,.3-.247v-.863Z" transform="translate(-114.036 -346.949)"/>
    <path id="Path_8" data-name="Path 8" d="M215.3,355.122a.276.276,0,0,0-.3-.247h-1.039a.276.276,0,0,0-.3.247v.863a.276.276,0,0,0,.3.247h1.039a.276.276,0,0,0,.3-.247Z" transform="translate(-208.074 -346.949)"/>
    <path id="Path_9" data-name="Path 9" d="M311.932,355.122a.276.276,0,0,0-.3-.247H310.6a.276.276,0,0,0-.3.247v.863a.276.276,0,0,0,.3.247h1.039a.276.276,0,0,0,.3-.247v-.863Z" transform="translate(-302.106 -346.949)"/>
    <path id="Path_10" data-name="Path 10" d="M17.095,54.147v1.319a1.2,1.2,0,0,1-1.3,1.076h-.819a1.21,1.21,0,0,1-1.307-1.076V54.142H9.977v1.324a1.21,1.21,0,0,1-1.306,1.076H7.851a1.2,1.2,0,0,1-1.3-1.076V54.147a1.089,1.089,0,0,0-1.142.977v7.729a1.094,1.094,0,0,0,1.176.983H17.06a1.1,1.1,0,0,0,1.176-.983V55.123A1.089,1.089,0,0,0,17.095,54.147Zm-.381,8.224a.471.471,0,0,1-.508.422H7.419a.471.471,0,0,1-.508-.422V58.379a.471.471,0,0,1,.508-.423h8.787a.471.471,0,0,1,.508.423v3.992Z" transform="translate(-5.411 -52.933)"/>
    <path id="Path_11" data-name="Path 11" d="M80,2.9h.81a.413.413,0,0,0,.445-.37V.37A.413.413,0,0,0,80.806,0H80a.413.413,0,0,0-.445.37V2.532A.413.413,0,0,0,80,2.9Z" transform="translate(-77.558)"/>
    <path id="Path_12" data-name="Path 12" d="M344.9,2.9h.81a.413.413,0,0,0,.445-.37V.37a.413.413,0,0,0-.445-.37h-.81a.413.413,0,0,0-.445.37V2.532A.413.413,0,0,0,344.9,2.9Z" transform="translate(-335.348)"/>
  </g>
</svg>
