<svg height="448pt" viewBox="0 0 448.64513 448" width="448pt" xmlns="http://www.w3.org/2000/svg"><path d="m78.304688 67.167969c-1.316407-1.320313-2.132813-3.0625-2.304688-4.917969l-3.015625-32.730469-52.957031-24-14.722656 14.695313 24 52.960937 32.738281 3.007813c1.859375.171875 3.597656.992187 4.917969 2.3125l104.097656 104 11.253906-11.257813zm0 0"/><path d="m305.167969 206.816406c2.011719-2.03125 4.964843-2.824218 7.722656-2.074218 35.074219 9.421874 72.523437-.144532 98.777344-25.234376 26.257812-25.089843 37.519531-62.066406 29.703125-97.53125l-50.714844 50.640626c-2.140625 2.132812-5.304688 2.875-8.175781 1.917968l-50.910157-16.949218c-2.390624-.796876-4.265624-2.667969-5.066406-5.058594l-16.957031-50.878906c-.960937-2.875-.214844-6.046876 1.925781-8.191407l50.640625-50.703125c-35.453125-7.804687-72.414062 3.457032-97.492187 29.703125-25.082032 26.246094-34.648438 63.679688-25.242188 98.742188.738282 2.761719-.050781 5.707031-2.074218 7.730469l-225.597657 225.621093c-15.609375 15.644531-15.609375 40.96875 0 56.609375l11.277344 11.28125c15.644531 15.605469 40.96875 15.605469 56.609375 0zm0 0"/><path d="m301.136719 290.070312-28.285157-28.285156-2.160156 2.160156-9.089844 9.085938 28.289063 28.28125zm0 0"/><path d="m425.617188 437.113281 11.3125-11.3125c15.621093-15.621093 15.621093-40.949219 0-56.570312l-96.167969-96.167969-67.878907 67.890625 96.167969 96.160156c15.628907 15.59375 40.933594 15.59375 56.566407 0zm0 0"/></svg>