<svg xmlns="http://www.w3.org/2000/svg" viewBox="0 0 9.117 11">
  <path id="Facebook_Places" d="M75.806,2.738a3.121,3.121,0,0,0-.214-.44A4.575,4.575,0,0,0,71.4,0c-2,0-4.2,1.115-4.5,3.412v.469c0,.02.008.2.02.284.165,1.1,1.2,2.259,1.981,3.354.835,1.173,1.7,2.327,2.56,3.481.529-.753,1.057-1.516,1.574-2.249.141-.215.3-.43.446-.636.094-.137.274-.274.356-.4.835-1.271,2.179-2.552,2.179-3.813V3.383A3.407,3.407,0,0,0,75.806,2.738ZM71.438,5.094a1.637,1.637,0,0,1-1.549-.919,1.068,1.068,0,0,1-.044-.342v-.3c0-.86.879-1.251,1.643-1.251a1.54,1.54,0,0,1,1.669,1.408A1.59,1.59,0,0,1,71.438,5.094Z" transform="translate(-66.905)"/>
</svg>
